<?xml version="1.0" encoding="UTF-8" standalone="no"?>
<svg width="129px" height="213px" viewBox="0 0 129 213" version="1.1" xmlns="http://www.w3.org/2000/svg" xmlns:xlink="http://www.w3.org/1999/xlink">
    <!-- Generator: Sketch 3.6 (26304) - http://www.bohemiancoding.com/sketch -->
    <title>d</title>
    <desc>Created with Sketch.</desc>
    <defs></defs>
    <g id="Page-1" stroke="none" stroke-width="1" fill="none" fill-rule="evenodd" stroke-opacity="0" fill-opacity="0.017747962">
        <g id="Desktop" transform="translate(-256.000000, -178.000000)" stroke="#4A4A4A" stroke-width="4" fill="#D8D8D8">
            <g id="logo" transform="translate(160.000000, 178.000000)">
                <path class="d-colour" d="M151.6467,36.4373 L151.6467,176.5093 C159.6277,176.5093 164.5357,174.9093 166.3827,171.7103 C168.2237,168.5103 169.1447,159.8053 169.1447,145.6023 L169.1447,62.8743 C169.1447,53.2243 168.8337,47.0463 168.2237,44.3293 C167.6077,41.6113 166.2047,39.6123 164.0147,38.3423 C161.8177,37.0723 157.6977,36.4373 151.6467,36.4373 L151.6467,36.4373 Z M96.2767,0.0003 L137.7107,0.0003 C164.4527,0.0003 182.5347,1.2323 191.9627,3.6893 C201.3847,6.1393 208.5527,10.1773 213.4677,15.7843 C218.3747,21.3963 221.4417,27.6443 222.6737,34.5263 C223.8987,41.4153 224.5147,54.9383 224.5147,75.1033 L224.5147,149.6783 C224.5147,168.7953 223.6127,181.5703 221.8167,188.0143 C220.0197,194.4583 216.8827,199.5063 212.4137,203.1443 C207.9437,206.7823 202.4197,209.3213 195.8427,210.7693 C189.2647,212.2163 179.3537,212.9403 166.1157,212.9403 L96.2767,212.9403 L96.2767,0.0003 L96.2767,0.0003 Z" id="d"></path>
            </g>
        </g>
    </g>
</svg>