<?xml version="1.0" encoding="UTF-8" standalone="no"?>
<svg width="160px" height="249px" viewBox="0 0 160 249" version="1.1" xmlns="http://www.w3.org/2000/svg" xmlns:xlink="http://www.w3.org/1999/xlink">
    <!-- Generator: Sketch 3.6 (26304) - http://www.bohemiancoding.com/sketch -->
    <title>lemon</title>
    <desc>Created with Sketch.</desc>
    <defs></defs>
    <g id="Page-1" stroke="none" stroke-width="1" fill="none" fill-rule="evenodd" stroke-opacity="0">
        <g id="Desktop" transform="translate(-565.000000, -470.000000)" stroke="#4A4A4A" stroke-width="2">
            <g id="logo" transform="translate(160.000000, 178.000000)">
                <g id="lemon" transform="translate(405.000000, 292.000000)">
                    <path d="M159.293,119.4387 C159.293,138.5917 159.502,157.4857 157.421,175.8597 C156.17,186.9117 152.26,197.0107 145.692,206.1547 C139.116,215.2997 130.234,222.3237 119.048,227.2197 C107.854,232.1227 94.819,248.6257 79.936,248.6257 C65.816,248.6257 53.127,232.2567 41.886,227.6297 C30.645,223.0017 21.598,216.0647 14.755,206.8097 C7.911,197.5547 3.836,187.4797 2.53,176.5927 C1.224,165.7057 0.579,146.6597 0.579,119.4387" id="Stroke-1"></path>
                    <path d="M66.8511,158.5292 C51.4831,158.5292 40.6031,158.1692 34.2141,157.4442 C27.8201,156.7192 21.9791,154.4522 16.6891,150.6442 C11.3991,146.8322 7.3361,141.6842 4.5041,135.1992 C1.6681,128.7102 0.2541,121.1542 0.2541,112.5262 C0.2541,104.3402 1.5901,96.9852 4.2671,90.4682 C6.9441,83.9522 10.9571,78.7082 16.3111,74.7402 C21.6641,70.7732 27.4921,68.4112 33.7901,67.6542 C40.0871,66.8972 51.1051,66.5232 66.8511,66.5232 L93.0171,66.5232 C108.3851,66.5232 119.2661,66.8832 125.6591,67.6082 C132.0481,68.3292 137.8891,70.6002 143.1791,74.4072 C148.4691,78.2202 152.5321,83.3682 155.3691,89.8532 C158.2001,96.3422 159.6191,103.8982 159.6191,112.5262 C159.6191,120.7112 158.2781,128.0672 155.6011,134.5842 C152.9241,141.1002 148.9111,146.3442 143.5581,150.3122 C138.2041,154.2792 132.3811,156.6412 126.0831,157.3982 C119.7861,158.1552 108.7641,158.5292 93.0171,158.5292 L66.8511,158.5292 L66.8511,158.5292 Z" id="Stroke-3"></path>
                    <path d="M25.5634,70.3294 L53.9594,131.0254 L108.4364,131.0254 L134.0164,70.5664" id="Stroke-5"></path>
                    <path d="M34.2139,157.4439 L53.9599,129.6889 L0.5789,119.4389" id="Stroke-7"></path>
                    <path d="M159.293,119.3096 L108.436,129.6886 L126.083,157.3986" id="Stroke-9"></path>
                    <path d="M0.2542,14.0775 L32.4962,40.8985" id="Stroke-27" stroke-linecap="round"></path>
                    <path d="M54.4794,40.0251 L54.4794,4.0251" id="Stroke-29" stroke-linecap="round"></path>
                    <path d="M93.748,33.5656 L109.051,0.2836" id="Stroke-31" stroke-linecap="round"></path>
                    <path d="M126.882,51.424 L157.308,18.495" id="Stroke-33" stroke-linecap="round"></path>
                </g>
            </g>
        </g>
    </g>
</svg>