<?xml version="1.0" encoding="UTF-8" standalone="no"?>
<svg width="120px" height="213px" viewBox="0 0 120 213" version="1.1" xmlns="http://www.w3.org/2000/svg" xmlns:xlink="http://www.w3.org/1999/xlink">
    <!-- Generator: Sketch 3.6 (26304) - http://www.bohemiancoding.com/sketch -->
    <title>p</title>
    <desc>Created with Sketch.</desc>
    <defs></defs>
    <g id="Page-1" stroke="none" stroke-width="1" fill="none" fill-rule="evenodd" stroke-opacity="0">
        <g id="Desktop" transform="translate(-629.000000, -178.000000)" stroke="#4A4A4A" stroke-width="4">
            <g id="logo" transform="translate(160.000000, 178.000000)">
                <path d="M524.3859,36.4373 L524.3859,90.6263 C525.9669,90.7093 527.3259,90.7533 528.4679,90.7533 C533.5479,90.7533 537.0779,89.5023 539.0519,87.0073 C541.0269,84.5063 542.0109,79.3123 542.0109,71.4203 L542.0109,53.9293 C542.0109,46.6533 540.8739,41.9163 538.5949,39.7263 C536.3089,37.5353 531.5789,36.4373 524.3859,36.4373 L524.3859,36.4373 Z M469.0159,0.0003 L524.7859,0.0003 C539.8649,0.0003 551.4579,1.1873 559.5719,3.5553 C567.6799,5.9243 573.7749,9.3393 577.8509,13.8153 C581.9269,18.2853 584.6889,23.7013 586.1369,30.0563 C587.5839,36.4123 588.3079,46.2593 588.3079,59.5863 L588.3079,78.1313 C588.3079,91.7183 586.9049,101.6293 584.0989,107.8513 C581.2919,114.0793 576.1429,118.8603 568.6449,122.1873 C561.1469,125.5203 551.3499,127.1843 539.2489,127.1843 L524.3859,127.1843 L524.3859,212.9403 L469.0159,212.9403 L469.0159,0.0003 L469.0159,0.0003 Z" id="p"></path>
            </g>
        </g>
    </g>
</svg>